<svg xmlns="http://www.w3.org/2000/svg" viewBox="0 0 1000 520" font-family="Arial, sans-serif">
  <rect width="1000" height="520" fill="#F3F4F6" rx="8"/>
  <text x="40" y="20" font-size="11" fill="#6B7280">Wireframe: Step 3 - 인적정보 확인</text>
  <rect x="50" y="35" width="900" height="460" rx="12" fill="#FFFFFF" stroke="#E5E7EB"/>

  <!-- Step Indicator abbreviated -->
  <circle cx="200" cy="65" r="14" fill="#059669"/><text x="200" y="70" font-size="10" fill="#FFF" text-anchor="middle">&#10003;</text>
  <line x1="214" y1="65" x2="290" y2="65" stroke="#059669" stroke-width="2"/>
  <circle cx="305" cy="65" r="14" fill="#059669"/><text x="305" y="70" font-size="10" fill="#FFF" text-anchor="middle">&#10003;</text>
  <line x1="319" y1="65" x2="395" y2="65" stroke="#1E40AF" stroke-width="2"/>
  <circle cx="410" cy="65" r="14" fill="#1E40AF"/><text x="410" y="70" font-size="10" fill="#FFF" text-anchor="middle" font-weight="bold">3</text>
  <line x1="424" y1="65" x2="500" y2="65" stroke="#E5E7EB" stroke-width="2"/>
  <circle cx="515" cy="65" r="14" fill="#E5E7EB"/><text x="515" y="70" font-size="10" fill="#6B7280" text-anchor="middle">4</text>
  <text x="200" y="92" font-size="9" fill="#059669" text-anchor="middle">도구 선택</text>
  <text x="305" y="92" font-size="9" fill="#059669" text-anchor="middle">환경 선택</text>
  <text x="410" y="92" font-size="9" fill="#1E40AF" text-anchor="middle" font-weight="600">인적정보</text>

  <line x1="70" y1="105" x2="930" y2="105" stroke="#E5E7EB"/>

  <text x="100" y="140" font-size="20" fill="#111827" font-weight="bold">인적정보를 확인하세요</text>

  <!-- Info Banner -->
  <rect x="100" y="155" width="800" height="35" rx="6" fill="#F0F9FF" stroke="#BAE6FD"/>
  <text x="125" y="177" font-size="12" fill="#0369A1">&#9432; 사내 HR 시스템에서 자동으로 가져온 정보입니다. 수정이 필요하면 HR 시스템을 이용해주세요.</text>

  <!-- Form Grid -->
  <!-- Row 1 -->
  <text x="100" y="220" font-size="12" fill="#374151" font-weight="600">사번</text>
  <rect x="100" y="228" width="350" height="40" rx="8" fill="#F9FAFB" stroke="#E5E7EB"/>
  <text x="120" y="253" font-size="13" fill="#6B7280">EMP-20220315</text>
  <rect x="420" y="238" width="30" height="20" rx="4" fill="#F3F4F6"/>
  <text x="435" y="252" font-size="9" fill="#9CA3AF" text-anchor="middle">&#128274;</text>

  <text x="520" y="220" font-size="12" fill="#374151" font-weight="600">이름</text>
  <rect x="520" y="228" width="350" height="40" rx="8" fill="#F9FAFB" stroke="#E5E7EB"/>
  <text x="540" y="253" font-size="13" fill="#6B7280">김개발</text>
  <rect x="840" y="238" width="30" height="20" rx="4" fill="#F3F4F6"/>
  <text x="855" y="252" font-size="9" fill="#9CA3AF" text-anchor="middle">&#128274;</text>

  <!-- Row 2 -->
  <text x="100" y="295" font-size="12" fill="#374151" font-weight="600">부서</text>
  <rect x="100" y="303" width="350" height="40" rx="8" fill="#F9FAFB" stroke="#E5E7EB"/>
  <text x="120" y="328" font-size="13" fill="#6B7280">플랫폼개발팀</text>
  <rect x="420" y="313" width="30" height="20" rx="4" fill="#F3F4F6"/>
  <text x="435" y="327" font-size="9" fill="#9CA3AF" text-anchor="middle">&#128274;</text>

  <text x="520" y="295" font-size="12" fill="#374151" font-weight="600">직급</text>
  <rect x="520" y="303" width="350" height="40" rx="8" fill="#F9FAFB" stroke="#E5E7EB"/>
  <text x="540" y="328" font-size="13" fill="#6B7280">선임 개발자</text>
  <rect x="840" y="313" width="30" height="20" rx="4" fill="#F3F4F6"/>
  <text x="855" y="327" font-size="9" fill="#9CA3AF" text-anchor="middle">&#128274;</text>

  <!-- Row 3 - Editable -->
  <text x="100" y="370" font-size="12" fill="#374151" font-weight="600">이메일 <text font-size="10" fill="#DC2626">*</text></text>
  <rect x="100" y="378" width="350" height="40" rx="8" fill="#FFFFFF" stroke="#D1D5DB"/>
  <text x="120" y="403" font-size="13" fill="#111827">kim.dev@company.com</text>

  <text x="520" y="370" font-size="12" fill="#374151" font-weight="600">연락처 <text font-size="10" fill="#DC2626">*</text></text>
  <rect x="520" y="378" width="350" height="40" rx="8" fill="#FFFFFF" stroke="#D1D5DB"/>
  <text x="540" y="403" font-size="13" fill="#111827">010-1234-5678</text>

  <!-- Bottom Actions -->
  <line x1="70" y1="440" x2="930" y2="440" stroke="#E5E7EB"/>
  <rect x="100" y="455" width="90" height="38" rx="8" fill="#F3F4F6" stroke="#E5E7EB"/>
  <text x="145" y="479" font-size="13" fill="#6B7280" text-anchor="middle">&lt; 이전</text>
  <rect x="730" y="455" width="90" height="38" rx="8" fill="#F3F4F6" stroke="#E5E7EB"/>
  <text x="775" y="479" font-size="13" fill="#6B7280" text-anchor="middle">임시저장</text>
  <rect x="835" y="455" width="100" height="38" rx="8" fill="#1E40AF"/>
  <text x="885" y="479" font-size="13" fill="#FFF" text-anchor="middle" font-weight="600">다음 ></text>
</svg>
