<svg xmlns="http://www.w3.org/2000/svg" viewBox="0 0 1000 500" font-family="Arial, sans-serif">
  <rect width="1000" height="500" fill="#F3F4F6" rx="8"/>
  <text x="40" y="20" font-size="11" fill="#6B7280">Wireframe: Step 2 - 사용 환경 선택</text>

  <rect x="50" y="35" width="900" height="440" rx="12" fill="#FFFFFF" stroke="#E5E7EB"/>

  <!-- Step Indicator (2 active) -->
  <circle cx="180" cy="65" r="14" fill="#059669"/>
  <text x="180" y="70" font-size="10" fill="#FFF" text-anchor="middle">&#10003;</text>
  <line x1="194" y1="65" x2="280" y2="65" stroke="#1E40AF" stroke-width="2"/>
  <circle cx="295" cy="65" r="14" fill="#1E40AF"/>
  <text x="295" y="70" font-size="10" fill="#FFF" text-anchor="middle" font-weight="bold">2</text>
  <line x1="309" y1="65" x2="395" y2="65" stroke="#E5E7EB" stroke-width="2"/>
  <circle cx="410" cy="65" r="14" fill="#E5E7EB"/>
  <text x="410" y="70" font-size="10" fill="#6B7280" text-anchor="middle">3</text>
  <text x="180" y="92" font-size="9" fill="#059669" text-anchor="middle">도구 선택</text>
  <text x="295" y="92" font-size="9" fill="#1E40AF" text-anchor="middle" font-weight="600">환경 선택</text>
  <text x="410" y="92" font-size="9" fill="#9CA3AF" text-anchor="middle">인적정보</text>

  <line x1="70" y1="105" x2="930" y2="105" stroke="#E5E7EB"/>

  <text x="100" y="140" font-size="20" fill="#111827" font-weight="bold">사용 환경을 선택하세요</text>
  <text x="100" y="162" font-size="13" fill="#6B7280">복수 선택이 가능합니다. 각 환경별 요구사항을 확인하세요.</text>

  <!-- VDI Card - Selected -->
  <rect x="100" y="185" width="250" height="180" rx="12" fill="#FFFFFF" stroke="#1E40AF" stroke-width="2"/>
  <rect x="318" y="195" width="22" height="22" rx="4" fill="#1E40AF"/>
  <text x="329" y="211" font-size="12" fill="#FFF" text-anchor="middle">&#10003;</text>
  <text x="160" y="228" font-size="28">&#128421;</text>
  <text x="160" y="260" font-size="16" fill="#111827" font-weight="bold" text-anchor="middle">VDI</text>
  <text x="160" y="280" font-size="11" fill="#6B7280" text-anchor="middle">가상 데스크톱 환경</text>
  <rect x="115" y="300" width="230" height="45" rx="6" fill="#F0F9FF"/>
  <text x="130" y="318" font-size="10" fill="#0369A1">요구사항:</text>
  <text x="130" y="335" font-size="10" fill="#6B7280">- VDI 할당 필요 (IT팀 확인)</text>

  <!-- Notebook Card -->
  <rect x="375" y="185" width="250" height="180" rx="12" fill="#FFFFFF" stroke="#E5E7EB"/>
  <rect x="593" y="195" width="22" height="22" rx="4" fill="#FFFFFF" stroke="#D1D5DB"/>
  <text x="435" y="228" font-size="28">&#128187;</text>
  <text x="435" y="260" font-size="16" fill="#111827" font-weight="bold" text-anchor="middle">Notebook</text>
  <text x="435" y="280" font-size="11" fill="#6B7280" text-anchor="middle">개인 노트북 환경</text>
  <rect x="390" y="300" width="230" height="45" rx="6" fill="#F9FAFB"/>
  <text x="405" y="318" font-size="10" fill="#374151">요구사항:</text>
  <text x="405" y="335" font-size="10" fill="#6B7280">- 보안 S/W 설치 확인 필요</text>

  <!-- Others Card -->
  <rect x="650" y="185" width="250" height="180" rx="12" fill="#FFFFFF" stroke="#E5E7EB"/>
  <rect x="868" y="195" width="22" height="22" rx="4" fill="#FFFFFF" stroke="#D1D5DB"/>
  <text x="710" y="228" font-size="28">&#9881;</text>
  <text x="710" y="260" font-size="16" fill="#111827" font-weight="bold" text-anchor="middle">기타</text>
  <text x="710" y="280" font-size="11" fill="#6B7280" text-anchor="middle">기타 환경</text>
  <rect x="665" y="300" width="230" height="45" rx="6" fill="#F9FAFB"/>
  <text x="680" y="318" font-size="10" fill="#374151">기타 환경 설명:</text>
  <rect x="680" y="325" width="200" height="18" rx="4" fill="#FFFFFF" stroke="#D1D5DB"/>

  <!-- Bottom Actions -->
  <line x1="70" y1="405" x2="930" y2="405" stroke="#E5E7EB"/>
  <rect x="100" y="420" width="90" height="40" rx="8" fill="#F3F4F6" stroke="#E5E7EB"/>
  <text x="145" y="445" font-size="13" fill="#6B7280" text-anchor="middle">&lt; 이전</text>
  <rect x="730" y="420" width="90" height="40" rx="8" fill="#F3F4F6" stroke="#E5E7EB"/>
  <text x="775" y="445" font-size="13" fill="#6B7280" text-anchor="middle">임시저장</text>
  <rect x="835" y="420" width="100" height="40" rx="8" fill="#1E40AF"/>
  <text x="885" y="445" font-size="13" fill="#FFF" text-anchor="middle" font-weight="600">다음 ></text>
</svg>
