<svg xmlns="http://www.w3.org/2000/svg" viewBox="0 0 1000 650" font-family="Arial, sans-serif">
  <rect width="1000" height="650" fill="#F3F4F6" rx="8"/>
  <text x="40" y="20" font-size="11" fill="#6B7280">Wireframe: Step 4 - 프로젝트 정보 입력 (다중 프로젝트)</text>
  <rect x="50" y="35" width="900" height="590" rx="12" fill="#FFFFFF" stroke="#E5E7EB"/>

  <!-- Step Indicator (4 active) -->
  <circle cx="250" cy="65" r="12" fill="#059669"/><text x="250" y="69" font-size="9" fill="#FFF" text-anchor="middle">&#10003;</text>
  <line x1="262" y1="65" x2="320" y2="65" stroke="#059669" stroke-width="2"/>
  <circle cx="333" cy="65" r="12" fill="#059669"/><text x="333" y="69" font-size="9" fill="#FFF" text-anchor="middle">&#10003;</text>
  <line x1="345" y1="65" x2="403" y2="65" stroke="#059669" stroke-width="2"/>
  <circle cx="416" cy="65" r="12" fill="#059669"/><text x="416" y="69" font-size="9" fill="#FFF" text-anchor="middle">&#10003;</text>
  <line x1="428" y1="65" x2="486" y2="65" stroke="#1E40AF" stroke-width="2"/>
  <circle cx="500" cy="65" r="12" fill="#1E40AF"/><text x="500" y="69" font-size="9" fill="#FFF" text-anchor="middle" font-weight="bold">4</text>
  <text x="500" y="90" font-size="9" fill="#1E40AF" text-anchor="middle" font-weight="600">프로젝트</text>

  <line x1="70" y1="100" x2="930" y2="100" stroke="#E5E7EB"/>

  <text x="100" y="132" font-size="20" fill="#111827" font-weight="bold">프로젝트 정보를 입력하세요</text>
  <text x="100" y="152" font-size="13" fill="#6B7280">AI 도구를 사용할 프로젝트를 등록합니다. 여러 프로젝트를 추가할 수 있습니다.</text>

  <!-- Project Card 1 -->
  <rect x="100" y="170" width="800" height="195" rx="10" fill="#FFFFFF" stroke="#1E40AF" stroke-width="1.5"/>
  <rect x="100" y="170" width="800" height="35" rx="10" fill="#EEF2FF"/>
  <text x="120" y="193" font-size="13" fill="#1E40AF" font-weight="bold">프로젝트 1</text>
  <text x="870" y="193" font-size="12" fill="#DC2626" text-anchor="end" style="cursor:pointer">&#10005; 삭제</text>

  <!-- Project 1 form -->
  <text x="120" y="228" font-size="11" fill="#374151" font-weight="600">프로젝트명 *</text>
  <rect x="120" y="235" width="350" height="34" rx="6" fill="#FFF" stroke="#D1D5DB"/>
  <text x="135" y="257" font-size="12" fill="#111827">결제 시스템 리뉴얼</text>

  <text x="500" y="228" font-size="11" fill="#374151" font-weight="600">기간</text>
  <rect x="500" y="235" width="160" height="34" rx="6" fill="#FFF" stroke="#D1D5DB"/>
  <text x="515" y="257" font-size="11" fill="#6B7280">2026-01 ~ 2026-06</text>
  <text x="680" y="228" font-size="11" fill="#374151" font-weight="600">역할</text>
  <rect x="680" y="235" width="190" height="34" rx="6" fill="#FFF" stroke="#D1D5DB"/>
  <text x="695" y="257" font-size="12" fill="#111827">백엔드 개발</text>

  <text x="120" y="295" font-size="11" fill="#374151" font-weight="600">프로젝트 설명</text>
  <rect x="120" y="303" width="750" height="45" rx="6" fill="#FFF" stroke="#D1D5DB"/>
  <text x="135" y="325" font-size="12" fill="#111827">기존 결제 모듈을 MSA 기반으로 리팩토링하는 프로젝트입니다.</text>

  <!-- Project Card 2 -->
  <rect x="100" y="380" width="800" height="155" rx="10" fill="#FFFFFF" stroke="#E5E7EB"/>
  <rect x="100" y="380" width="800" height="35" rx="10" fill="#F9FAFB"/>
  <text x="120" y="403" font-size="13" fill="#374151" font-weight="bold">프로젝트 2</text>
  <text x="870" y="403" font-size="12" fill="#DC2626" text-anchor="end" style="cursor:pointer">&#10005; 삭제</text>

  <text x="120" y="438" font-size="11" fill="#374151" font-weight="600">프로젝트명 *</text>
  <rect x="120" y="445" width="350" height="34" rx="6" fill="#FFF" stroke="#D1D5DB"/>
  <text x="135" y="467" font-size="12" fill="#111827">내부 API Gateway</text>

  <text x="500" y="438" font-size="11" fill="#374151" font-weight="600">기간</text>
  <rect x="500" y="445" width="160" height="34" rx="6" fill="#FFF" stroke="#D1D5DB"/>
  <text x="515" y="467" font-size="11" fill="#6B7280">2026-03 ~ 2026-09</text>
  <text x="680" y="438" font-size="11" fill="#374151" font-weight="600">역할</text>
  <rect x="680" y="445" width="190" height="34" rx="6" fill="#FFF" stroke="#D1D5DB"/>
  <text x="695" y="467" font-size="12" fill="#111827">리드 개발</text>

  <text x="120" y="505" font-size="11" fill="#374151" font-weight="600">프로젝트 설명</text>
  <rect x="120" y="512" width="750" height="15" rx="6" fill="#FFF" stroke="#D1D5DB"/>

  <!-- Add Project Button -->
  <rect x="100" y="550" width="800" height="40" rx="8" fill="#FFFFFF" stroke="#1E40AF" stroke-dasharray="6,3"/>
  <text x="500" y="575" font-size="13" fill="#1E40AF" text-anchor="middle" font-weight="600">+ 프로젝트 추가</text>

  <!-- Bottom Actions -->
  <line x1="70" y1="598" x2="930" y2="598" stroke="#E5E7EB"/>
  <rect x="100" y="605" width="80" height="34" rx="8" fill="#F3F4F6" stroke="#E5E7EB"/>
  <text x="140" y="627" font-size="12" fill="#6B7280" text-anchor="middle">&lt; 이전</text>
  <rect x="745" y="605" width="80" height="34" rx="8" fill="#F3F4F6" stroke="#E5E7EB"/>
  <text x="785" y="627" font-size="12" fill="#6B7280" text-anchor="middle">임시저장</text>
  <rect x="840" y="605" width="95" height="34" rx="8" fill="#1E40AF"/>
  <text x="887" y="627" font-size="12" fill="#FFF" text-anchor="middle" font-weight="600">다음 ></text>
</svg>
