<svg xmlns="http://www.w3.org/2000/svg" viewBox="0 0 1000 500" font-family="Arial, sans-serif">
  <rect width="1000" height="500" fill="#F3F4F6" rx="8"/>
  <text x="40" y="20" font-size="11" fill="#6B7280">Wireframe: Step 5 - 문서 첨부</text>
  <rect x="50" y="35" width="900" height="440" rx="12" fill="#FFFFFF" stroke="#E5E7EB"/>

  <!-- Step Indicator (5 active) -->
  <circle cx="250" cy="65" r="12" fill="#059669"/><text x="250" y="69" font-size="9" fill="#FFF" text-anchor="middle">&#10003;</text>
  <line x1="262" y1="65" x2="380" y2="65" stroke="#059669" stroke-width="2"/>
  <circle cx="393" cy="65" r="12" fill="#059669"/><text x="393" y="69" font-size="9" fill="#FFF" text-anchor="middle">&#10003;</text>
  <line x1="405" y1="65" x2="486" y2="65" stroke="#1E40AF" stroke-width="2"/>
  <circle cx="500" cy="65" r="12" fill="#1E40AF"/><text x="500" y="69" font-size="9" fill="#FFF" text-anchor="middle" font-weight="bold">5</text>
  <text x="500" y="90" font-size="9" fill="#1E40AF" text-anchor="middle" font-weight="600">문서 첨부</text>

  <line x1="70" y1="100" x2="930" y2="100" stroke="#E5E7EB"/>

  <text x="100" y="132" font-size="20" fill="#111827" font-weight="bold">관련 문서를 첨부하세요</text>
  <text x="100" y="152" font-size="13" fill="#6B7280">선택 사항이지만, 첨부 시 검토가 빨라질 수 있습니다.</text>

  <!-- Drop Zone -->
  <rect x="100" y="170" width="800" height="140" rx="12" fill="#F9FAFB" stroke="#1E40AF" stroke-width="1.5" stroke-dasharray="8,4"/>
  <text x="500" y="220" font-size="36" fill="#9CA3AF" text-anchor="middle">&#128206;</text>
  <text x="500" y="252" font-size="14" fill="#374151" text-anchor="middle">파일을 드래그하여 놓거나</text>
  <rect x="430" y="262" width="140" height="32" rx="6" fill="#1E40AF"/>
  <text x="500" y="283" font-size="12" fill="#FFF" text-anchor="middle" font-weight="600">파일 찾아보기</text>

  <!-- File list -->
  <text x="100" y="340" font-size="13" fill="#111827" font-weight="600">첨부된 파일 (2)</text>

  <rect x="100" y="350" width="800" height="40" rx="6" fill="#F9FAFB" stroke="#E5E7EB"/>
  <text x="130" y="375" font-size="13" fill="#111827">&#128196; 결제시스템_프로젝트제안서.pdf</text>
  <text x="700" y="375" font-size="11" fill="#6B7280">2.3 MB</text>
  <text x="870" y="375" font-size="12" fill="#DC2626" text-anchor="end">&#10005;</text>

  <rect x="100" y="395" width="800" height="40" rx="6" fill="#F9FAFB" stroke="#E5E7EB"/>
  <text x="130" y="420" font-size="13" fill="#111827">&#128196; 보안검토_사전체크리스트.xlsx</text>
  <text x="700" y="420" font-size="11" fill="#6B7280">540 KB</text>
  <text x="870" y="420" font-size="12" fill="#DC2626" text-anchor="end">&#10005;</text>

  <!-- File type info -->
  <text x="100" y="455" font-size="10" fill="#9CA3AF">지원 형식: PDF, DOCX, XLSX, PPTX, ZIP | 파일당 최대 50MB</text>

  <!-- Bottom Actions -->
  <line x1="70" y1="443" x2="930" y2="443" stroke="#E5E7EB"/>
  <rect x="100" y="448" width="80" height="34" rx="8" fill="#F3F4F6" stroke="#E5E7EB"/>
  <text x="140" y="470" font-size="12" fill="#6B7280" text-anchor="middle">&lt; 이전</text>
  <rect x="840" y="448" width="95" height="34" rx="8" fill="#1E40AF"/>
  <text x="887" y="470" font-size="12" fill="#FFF" text-anchor="middle" font-weight="600">다음 ></text>
</svg>
